PathFileType	4	(X/Y/Z)	C:\Users\Basilio\Documents\Thesis Gigler\squatting_fais\c3dfiles\047\SJ_pre1\markers_experimental.trc
DataRate	CameraRate	NumFrames	NumMarkers	Units	OrigDataRate	OrigDataStartFrame	OrigNumFrames
200.000000	200.000000	4	61	mm	200.000000	1446	1653
Frame#	Time	FHD			LBHD			RBHD			C7			T10			CLAV			LSHO			LUUPA			LMUPA			LDUPA			LLEP			LMEP			LRAD			LUL			LRFIN			RSHO			RUPA1			RMUPA			RDUPA			RLEP			RMEP			RRAD			RUL			RUFIN			LASI			RASI			USACR			LSACR			RSACR			LTHI1			LTHI2			LTHI3			LTHI4			LLFC			LMFC			LTIB1			LTIB2			LTIB3			LTIB4			LLMAL			LMMAL			LMT1			LMT2			LMT5			RTHI			RTHI2			RTHI3			RTHI4			RLFC			RMFC			RTIB1			RTIB2			RTIB3			RTIB4			RLMAL			RMMAL			RHEE			RMT1			RMT2			RMT5			*60			
		X1	Y1	Z1	X2	Y2	Z2	X3	Y3	Z3	X4	Y4	Z4	X5	Y5	Z5	X6	Y6	Z6	X7	Y7	Z7	X8	Y8	Z8	X9	Y9	Z9	X10	Y10	Z10	X11	Y11	Z11	X12	Y12	Z12	X13	Y13	Z13	X14	Y14	Z14	X15	Y15	Z15	X16	Y16	Z16	X17	Y17	Z17	X18	Y18	Z18	X19	Y19	Z19	X20	Y20	Z20	X21	Y21	Z21	X22	Y22	Z22	X23	Y23	Z23	X24	Y24	Z24	X25	Y25	Z25	X26	Y26	Z26	X27	Y27	Z27	X28	Y28	Z28	X29	Y29	Z29	X30	Y30	Z30	X31	Y31	Z31	X32	Y32	Z32	X33	Y33	Z33	X34	Y34	Z34	X35	Y35	Z35	X36	Y36	Z36	X37	Y37	Z37	X38	Y38	Z38	X39	Y39	Z39	X40	Y40	Z40	X41	Y41	Z41	X42	Y42	Z42	X43	Y43	Z43	X44	Y44	Z44	X45	Y45	Z45	X46	Y46	Z46	X47	Y47	Z47	X48	Y48	Z48	X49	Y49	Z49	X50	Y50	Z50	X51	Y51	Z51	X52	Y52	Z52	X53	Y53	Z53	X54	Y54	Z54	X55	Y55	Z55	X56	Y56	Z56	X57	Y57	Z57	X58	Y58	Z58	X59	Y59	Z59	X60	Y60	Z60	X61	Y61	Z61	

1447	7.23	119.0204315185547	1363.833251953125	-874.534606933594	-44.87668609619141	1385.3955078125	-954.8631591796877	-65.27598571777345	1394.275756835938	-807.613708496094	-140.8426971435547	1257.385864257813	-886.9735107421877	-335.0317077636719	1007.453247070313	-879.841735839844	-28.41772842407227	1127.051635742188	-877.5250244140627	-51.46865081787111	1172.99853515625	-1060.404541015625	-191.8592376708985	1139.140502929688	-1186.673217773438	-178.4097595214844	1092.865844726563	-1204.496948242188	-232.2462158203126	1101.463989257813	-1230.622924804688	-264.9972229003907	1042.331420898438	-1264.943725585938	-331.9493408203126	1061.888427734375	-1195.095825195313	-309.7364196777344	872.0032958984377	-1078.868774414063	-292.6527404785157	816.993591308594	-1132.53076171875	-262.6980895996094	836.6688232421877	-1039.892822265625	-74.74124908447267	1203.373046875	-715.6415405273439	-233.4446411132813	1176.982543945313	-591.1500854492189	-224.9319610595704	1133.41357421875	-568.8670043945314	-280.4933166503907	1144.35693359375	-549.8121337890626	-315.6386718750001	1085.218383789063	-515.2547607421876	-377.9968566894532	1090.7431640625	-584.8560180664064	-279.3277587890626	897.203552246094	-680.4610595703126	-279.1785278320313	852.7100830078127	-617.7219848632814	-254.601058959961	839.6692504882815	-718.3343505859376	-314.1701049804688	739.2736206054689	-971.4771118164065	-318.7920227050782	749.6939697265626	-746.6458129882814	-431.6828613281251	904.1480712890627	-882.8026123046877	-453.6665344238282	883.058044433594	-912.9471435546877	-457.7416076660157	882.425720214844	-853.8125610351565	-390.0625305175782	687.4572753906251	-1101.7373046875	-314.7612304687501	658.7083740234376	-1122.818237304688	-278.4751281738282	686.5428466796876	-1104.932250976563	-300.8761291503907	603.7396850585939	-1144.049194335938	-204.614242553711	467.7626342773439	-1168.43310546875	-150.5817260742188	447.511444091797	-1056.914916992188	-198.0635223388672	282.9296569824219	-1096.840698242188	-233.078109741211	249.2352294921876	-1170.743530273438	-211.9905242919922	239.4136047363282	-1130.80810546875	-251.3583221435547	169.5147552490235	-1103.204223632813	-337.7521667480469	96.97732543945315	-1150.333129882813	-303.5807189941407	101.4686737060547	-1063.563842773438	-184.3132476806641	63.59054183959962	-1112.279296875	-194.1144561767579	62.56876754760744	-1155.336791992188	-240.284652709961	44.54183197021485	-1195.807495117188	-387.5991821289064	651.9829711914064	-645.0805664062501	-326.3587951660157	635.5402832031251	-624.8536987304689	-300.9864807128907	655.6466064453126	-629.5994873046876	-297.0358581542969	557.7161254882814	-610.9991455078126	-196.8594512939454	456.8790283203126	-598.9105834960939	-143.1648406982422	453.9175415039064	-715.0913085937501	-172.4881744384766	329.8249206542969	-616.4009399414064	-264.6540832519532	272.0158081054688	-599.7067260742189	-220.9569854736329	257.8890686035157	-606.7822265625001	-221.6187896728516	211.8646850585938	-644.8095092773439	-335.5115051269532	89.96326446533205	-644.0747070312501	-287.1817932128907	102.3708572387696	-725.3234252929689	-384.1486816406251	52.22996139526369	-710.4578857421876	-173.556137084961	54.9766082763672	-671.2246093750001	-185.2606353759766	57.5547561645508	-626.1781005859376	-245.4196777343751	30.68219375610352	-582.8717041015626	nan	nan	nan	
1448	7.235	117.2962265014649	1369.603393554688	-874.5668945312502	-46.63998794555665	1390.534912109375	-954.6199951171877	-66.96106719970705	1399.281372070313	-807.6995849609377	-142.0401000976563	1261.813232421875	-886.936706542969	-334.7362976074219	1010.784423828125	-879.7951660156252	-28.76305198669434	1132.357055664063	-877.6359863281252	-52.16294479370119	1178.164306640625	-1060.34033203125	-192.0048217773438	1143.562255859375	-1186.697387695313	-178.8681640625	1097.419555664063	-1204.4013671875	-232.8553619384766	1105.656005859375	-1230.544067382813	-265.3791503906251	1046.3642578125	-1264.814331054688	-332.2250976562501	1065.598388671875	-1194.885620117188	-308.9837951660157	875.7766723632815	-1078.82958984375	-291.4668273925782	821.0900878906252	-1132.632690429688	-261.7507629394532	840.4890136718752	-1039.915771484375	-75.61248779296876	1208.153930664063	-714.7075805664064	-234.4845428466797	1181.01171875	-591.2434082031251	-225.6794738769532	1137.767822265625	-569.0814208984376	-281.1988525390626	1148.301391601563	-549.8899536132814	-316.1430969238282	1088.941162109375	-515.1887817382814	-378.1583251953126	1093.873046875	-585.1287841796876	-278.6435852050782	901.0600585937502	-680.2863769531251	-278.3924255371094	856.4644165039065	-617.7265625000001	-253.5836181640626	843.3873291015627	-718.4170532226564	-310.7270507812501	745.3078002929689	-972.618835449219	-314.1551208496094	755.4003295898439	-747.7854614257814	-431.3189392089845	907.4979248046877	-882.893981933594	-452.9700317382814	886.081481933594	-912.8466796875002	-456.511444091797	885.387878417969	-854.0742187500002	-389.0557556152345	689.4144897460939	-1101.645385742188	-314.0370788574219	660.1305541992189	-1123.042602539063	-277.6844787597657	687.9768676757814	-1105.14501953125	-300.7359008789063	605.0404052734376	-1143.945068359375	-205.456771850586	468.3367614746095	-1167.979370117188	-151.6602325439453	447.8385009765626	-1056.613891601563	-198.7189941406251	283.1805725097657	-1096.606567382813	-233.5082397460938	249.5422973632813	-1170.7431640625	-212.6469268798829	239.7897491455079	-1130.919311523438	-251.6763763427735	169.6069641113282	-1103.235229492188	-337.9224548339844	96.54687500000003	-1150.083618164063	-303.6201782226563	101.4739456176758	-1063.572875976563	-184.209945678711	63.70025634765626	-1112.379150390625	-194.0067443847657	62.68846893310548	-1155.3623046875	-240.3018951416016	44.52158355712891	-1195.7763671875	-386.8441467285157	654.0380859375001	-645.1799316406251	-325.6535644531251	637.1062011718751	-625.0997924804689	-300.2088012695313	657.2225952148439	-629.6019897460939	-297.0568847656251	559.0316162109376	-611.3380737304689	-197.3162078857422	457.4401245117189	-599.5132446289064	-145.1121826171875	454.8213500976564	-715.5054321289064	-173.1928253173828	330.1394958496094	-616.7900390625001	-265.2413024902344	272.4972839355469	-600.2243041992189	-221.3887176513672	258.4096984863282	-607.1157836914064	-221.9228057861329	212.085189819336	-645.0645751953126	-335.5942382812501	90.15357971191408	-644.0120849609376	-287.0927124023438	102.414909362793	-725.4212646484376	-384.0324707031251	52.20394897460939	-710.5357055664064	-173.3910217285157	55.06441879272462	-671.2916259765626	-185.25341796875	57.59178543090822	-626.1735229492189	-245.4096221923829	30.72530174255372	-582.9135742187501	nan	nan	nan	
1449	7.24	115.4248046875	1375.413330078125	-874.302673339844	-48.3030471801758	1395.75341796875	-954.4426879882815	-69.05770111083986	1404.259887695313	-807.4729614257815	-143.3158569335938	1266.505615234375	-886.8026123046877	-333.0914306640626	1014.228088378906	-879.551696777344	-29.27996826171876	1137.63232421875	-877.5314941406252	-53.07104873657228	1183.522094726563	-1060.175659179688	-192.8715820312501	1147.9599609375	-1186.666748046875	-179.4532470703125	1102.014770507813	-1204.294555664063	-233.3306732177735	1110.001220703125	-1230.43115234375	-265.6765136718751	1050.416137695313	-1264.728759765625	-332.4491882324219	1069.180541992188	-1194.818725585938	-308.1611633300782	879.5371704101565	-1078.805541992188	-290.3269348144532	824.9028320312502	-1132.522338867188	-260.5164489746094	844.508972167969	-1039.983032226563	-76.72574615478517	1213.141479492188	-714.3695068359376	-235.4204559326172	1185.342041015625	-591.2371826171876	-226.1621093750001	1142.076538085938	-569.1668090820314	-281.7652282714844	1152.199951171875	-550.0291137695314	-316.7354431152344	1092.74755859375	-515.0930175781251	-378.6882019042969	1097.374633789063	-585.0728759765626	-278.1018981933594	905.0113525390627	-680.4317016601564	-277.4909057617188	860.471862792969	-617.7351684570314	-252.6521606445313	847.3002929687502	-718.5985107421876	-309.7101440429688	748.9372558593751	-972.7530517578127	-313.0802001953126	758.5130004882814	-747.8396606445314	-430.9462280273439	910.919616699219	-882.645446777344	-452.4533996582032	889.2603759765627	-912.716491699219	-455.4953613281251	888.3651123046877	-853.7742919921877	-387.8283996582032	691.6674194335939	-1101.530395507813	-313.6027832031251	661.8168945312501	-1122.988159179688	-276.7052307128907	689.2106323242189	-1105.331176757813	-300.4397583007813	606.5211791992189	-1143.807739257813	-206.3191375732422	468.8857421875001	-1167.641967773438	-151.9989624023438	448.4161071777345	-1056.4189453125	-199.4162750244141	283.4544372558594	-1096.402709960938	-233.9120330810547	249.8839263916016	-1170.527465820313	-213.3369445800782	240.0467376708985	-1130.6298828125	-251.9050750732422	170.0177764892578	-1102.852416992188	-338.0670776367188	96.54744720458987	-1150.091064453125	-303.6562500000001	101.4978942871094	-1063.605712890625	-184.1496734619141	63.78690338134767	-1112.368408203125	-194.0517578125001	62.62413406372072	-1155.389526367188	-240.2204132080079	44.51986694335938	-1195.772094726563	-386.224822998047	656.0586547851564	-645.5938110351564	-325.1849975585938	638.8355712890626	-625.0464477539064	-299.3969421386719	658.4887695312501	-629.6196899414064	-296.7670898437501	560.4991455078126	-611.7388305664064	-198.2165985107422	457.9463500976564	-600.1197509765626	-145.8281860351563	455.3792114257814	-716.0006713867189	-173.483383178711	330.6614379882813	-616.6680297851564	-265.6251831054688	272.3123168945313	-600.1364135742189	-221.8433380126954	258.7891540527344	-607.3267211914064	-222.1589813232422	212.4638977050782	-645.0976562500001	-335.7142944335938	90.16057586669923	-643.9432983398439	-287.1542968750001	102.4013671875	-725.4644165039064	-384.2046508789064	52.2529983520508	-710.4425659179689	-173.3900146484375	55.02505493164064	-671.2513427734376	-185.278060913086	57.59445190429689	-626.1912231445314	-245.3716278076172	30.71621322631837	-582.9004516601564	nan	nan	nan	
1450	7.245	114.1525573730469	1381.241088867188	-874.4050292968752	-49.91358947753908	1400.865600585938	-954.4298095703127	-70.53684997558595	1409.5537109375	-807.1905517578127	-144.5612182617188	1271.225219726563	-886.5393066406252	-332.7289123535157	1017.820861816406	-879.5835571289065	-30.02352905273438	1142.94970703125	-877.5043945312502	-54.20262527465822	1188.579345703125	-1060.005981445313	-193.7820434570313	1152.5439453125	-1186.37744140625	-179.7978820800782	1106.52099609375	-1204.22119140625	-233.9069061279297	1114.311645507813	-1230.333984375	-265.8504333496094	1054.470336914063	-1264.624267578125	-332.5489196777344	1072.910766601563	-1194.796020507813	-307.4009704589844	883.2194824218752	-1078.8046875	-289.2049560546876	828.7767333984377	-1132.655029296875	-259.3653564453126	848.5554199218752	-1039.993408203125	-77.78807067871095	1217.996459960938	-714.3796997070314	-236.3778686523438	1189.585815429688	-591.3663330078126	-226.7439880371094	1146.326538085938	-569.2676391601564	-282.8948059082032	1156.129760742188	-549.9572143554689	-317.1713256835938	1096.545776367188	-515.1760253906251	-379.2569580078126	1100.882202148438	-585.1786499023439	-277.3251953125001	908.9019775390627	-680.4071655273439	-276.7303771972657	864.4125976562502	-617.6094360351564	-251.6129150390626	851.362487792969	-718.5592041015626	-307.6519165039063	752.6155395507814	-972.7136230468752	-311.7914123535157	762.2847290039064	-748.0657958984376	-429.6739501953126	913.714050292969	-882.6987915039065	-451.2485961914064	892.2991333007815	-912.7976684570315	-454.5890197753907	891.2681884765627	-853.8442382812502	-387.0978088378907	693.7912597656251	-1101.48876953125	-312.9718627929688	663.4067382812501	-1123.175415039063	-276.1362915039063	690.7565917968751	-1105.493774414063	-300.0591430664063	607.7434692382814	-1143.756713867188	-207.0606231689454	469.3664550781251	-1167.28173828125	-153.0511169433594	448.8895874023439	-1056.013305664063	-199.9959869384766	283.5950622558594	-1096.036376953125	-234.4515686035157	250.2372589111329	-1170.413208007813	-213.7231597900391	240.2345428466797	-1130.475219726563	-252.1550598144532	170.2110443115235	-1102.813720703125	-338.0849914550782	97.0202560424805	-1150.370727539063	-303.7216796875001	101.4110717773438	-1063.614135742188	-184.228271484375	63.73311233520509	-1112.376831054688	-194.0922393798829	62.57959365844728	-1155.38330078125	-240.2672882080079	44.49897766113282	-1195.734985351563	-385.3377685546876	658.2749023437501	-645.8186645507814	-324.4847412109376	640.3793945312501	-625.0956420898439	-298.6168823242188	659.8487548828126	-630.0003662109376	-297.0101013183594	561.7500610351564	-612.0492553710939	-198.8695220947266	458.4987792968751	-600.8078002929689	-145.3451690673828	455.7024536132814	-716.4533081054689	-174.1437683105469	331.2723693847657	-617.2579956054689	-265.9080200195313	272.6980285644532	-600.5380859375001	-222.1521606445313	259.1167907714844	-607.7531738281251	-222.4018707275391	213.0575408935547	-645.5656738281251	-335.6734924316407	90.26507568359376	-644.0532836914064	-287.1971740722657	102.4573669433594	-725.5390014648439	-384.1846923828126	52.2255096435547	-710.4058837890626	-173.4071044921875	55.04341506958009	-671.3466796875001	-185.2540893554688	57.60152816772462	-626.1969604492189	-245.4244232177735	30.74422454833985	-582.9970092773439	nan	nan	nan	
